<mxfile host="app.diagrams.net" modified="2022-03-26T06:33:50.855Z" agent="5.0 (Macintosh; Intel Mac OS X 10_15_7) AppleWebKit/537.36 (KHTML, like Gecko) Chrome/99.0.4844.51 Safari/537.36" etag="Y4cuFtV0M0YNL5VDYaji" version="17.1.3" type="github">
  <diagram id="3228e29e-7158-1315-38df-8450db1d8a1d" name="Page-1">
    <mxGraphModel dx="277" dy="302" grid="0" gridSize="10" guides="1" tooltips="1" connect="1" arrows="1" fold="1" page="1" pageScale="1" pageWidth="600" pageHeight="400" background="#EFF1F3" math="0" shadow="0">
      <root>
        <mxCell id="0" />
        <mxCell id="1" parent="0" />
        <mxCell id="g9KwYvelNcx-eXB0xMGi-1" value="&lt;font color=&quot;#ffffff&quot;&gt;&lt;span style=&quot;font-size: 16px&quot;&gt;索引页&lt;br&gt;1-7&lt;br&gt;&lt;/span&gt;&lt;/font&gt;" style="whiteSpace=wrap;html=1;aspect=fixed;rounded=1;strokeColor=none;fillColor=#9AC7BF;" parent="1" vertex="1">
          <mxGeometry x="259" y="427" width="80" height="80" as="geometry" />
        </mxCell>
        <mxCell id="g9KwYvelNcx-eXB0xMGi-4" value="" style="shape=flexArrow;endArrow=classic;startArrow=classic;html=1;rounded=0;fontSize=16;fontColor=#FFFFFF;strokeColor=none;fillColor=#FDD276;" parent="1" edge="1">
          <mxGeometry width="100" height="100" relative="1" as="geometry">
            <mxPoint x="135" y="725.5" as="sourcePoint" />
            <mxPoint x="204" y="725.5" as="targetPoint" />
          </mxGeometry>
        </mxCell>
        <mxCell id="spV6VU4cGSJD96CcmEE0-2" value="&lt;font color=&quot;#ffffff&quot;&gt;&lt;span style=&quot;font-size: 16px&quot;&gt;索引页&lt;br&gt;1-4&lt;br&gt;&lt;/span&gt;&lt;/font&gt;" style="whiteSpace=wrap;html=1;aspect=fixed;rounded=1;strokeColor=none;fillColor=#9AC7BF;" parent="1" vertex="1">
          <mxGeometry x="128.5" y="549" width="80" height="80" as="geometry" />
        </mxCell>
        <mxCell id="spV6VU4cGSJD96CcmEE0-4" value="&lt;font color=&quot;#ffffff&quot;&gt;&lt;span style=&quot;font-size: 16px&quot;&gt;&lt;br&gt;&lt;/span&gt;&lt;/font&gt;" style="whiteSpace=wrap;html=1;aspect=fixed;rounded=1;strokeColor=none;fillColor=#4A919B;" parent="1" vertex="1">
          <mxGeometry x="46" y="686" width="80" height="80" as="geometry" />
        </mxCell>
        <mxCell id="spV6VU4cGSJD96CcmEE0-6" value="行数据1" style="rounded=1;whiteSpace=wrap;html=1;fillColor=#535E80;strokeColor=default;fontColor=#FFFFFF;" parent="1" vertex="1">
          <mxGeometry x="53.25" y="708" width="65.75" height="17" as="geometry" />
        </mxCell>
        <mxCell id="spV6VU4cGSJD96CcmEE0-10" value="行数据2" style="rounded=1;whiteSpace=wrap;html=1;fillColor=#535E80;strokeColor=default;fontColor=#FFFFFF;" parent="1" vertex="1">
          <mxGeometry x="53.25" y="725" width="65.75" height="17" as="geometry" />
        </mxCell>
        <mxCell id="spV6VU4cGSJD96CcmEE0-11" value="行数据3" style="rounded=1;whiteSpace=wrap;html=1;fillColor=#535E80;strokeColor=default;fontColor=#FFFFFF;" parent="1" vertex="1">
          <mxGeometry x="53.129999999999995" y="742" width="65.75" height="17" as="geometry" />
        </mxCell>
        <mxCell id="spV6VU4cGSJD96CcmEE0-12" value="&lt;font color=&quot;#ffffff&quot;&gt;数据页&lt;/font&gt;" style="text;html=1;strokeColor=none;fillColor=none;align=center;verticalAlign=middle;whiteSpace=wrap;rounded=0;dashed=1;fontColor=#535E80;" parent="1" vertex="1">
          <mxGeometry x="58" y="686" width="55" height="22" as="geometry" />
        </mxCell>
        <mxCell id="spV6VU4cGSJD96CcmEE0-13" value="&lt;font color=&quot;#ffffff&quot;&gt;&lt;span style=&quot;font-size: 16px&quot;&gt;&lt;br&gt;&lt;/span&gt;&lt;/font&gt;" style="whiteSpace=wrap;html=1;aspect=fixed;rounded=1;strokeColor=none;fillColor=#4A919B;" parent="1" vertex="1">
          <mxGeometry x="211" y="686" width="80" height="80" as="geometry" />
        </mxCell>
        <mxCell id="spV6VU4cGSJD96CcmEE0-14" value="行数据4" style="rounded=1;whiteSpace=wrap;html=1;fillColor=#535E80;strokeColor=default;fontColor=#FFFFFF;" parent="1" vertex="1">
          <mxGeometry x="218.25" y="708" width="65.75" height="17" as="geometry" />
        </mxCell>
        <mxCell id="spV6VU4cGSJD96CcmEE0-15" value="行数据5" style="rounded=1;whiteSpace=wrap;html=1;fillColor=#535E80;strokeColor=default;fontColor=#FFFFFF;" parent="1" vertex="1">
          <mxGeometry x="218.25" y="725" width="65.75" height="17" as="geometry" />
        </mxCell>
        <mxCell id="spV6VU4cGSJD96CcmEE0-16" value="行数据6" style="rounded=1;whiteSpace=wrap;html=1;fillColor=#535E80;strokeColor=default;fontColor=#FFFFFF;" parent="1" vertex="1">
          <mxGeometry x="218.13" y="742" width="65.75" height="17" as="geometry" />
        </mxCell>
        <mxCell id="spV6VU4cGSJD96CcmEE0-17" value="&lt;font color=&quot;#ffffff&quot;&gt;数据页&lt;/font&gt;" style="text;html=1;strokeColor=none;fillColor=none;align=center;verticalAlign=middle;whiteSpace=wrap;rounded=0;dashed=1;fontColor=#535E80;" parent="1" vertex="1">
          <mxGeometry x="223" y="686" width="55" height="22" as="geometry" />
        </mxCell>
        <mxCell id="spV6VU4cGSJD96CcmEE0-21" value="" style="shape=flexArrow;endArrow=classic;html=1;rounded=0;fontColor=#FFFFFF;strokeColor=none;fillColor=#FDD276;" parent="1" edge="1">
          <mxGeometry width="50" height="50" relative="1" as="geometry">
            <mxPoint x="255.14999999999998" y="517" as="sourcePoint" />
            <mxPoint x="223" y="549" as="targetPoint" />
          </mxGeometry>
        </mxCell>
        <mxCell id="spV6VU4cGSJD96CcmEE0-22" value="" style="shape=flexArrow;endArrow=classic;html=1;rounded=0;fontColor=#FFFFFF;strokeColor=none;fillColor=#FDD276;" parent="1" edge="1">
          <mxGeometry width="50" height="50" relative="1" as="geometry">
            <mxPoint x="347" y="517" as="sourcePoint" />
            <mxPoint x="379.85" y="549" as="targetPoint" />
          </mxGeometry>
        </mxCell>
        <mxCell id="BJRcYlKcCAD2B9d3_ZLO-3" value="" style="shape=flexArrow;endArrow=classic;html=1;rounded=0;fontColor=#FFFFFF;strokeColor=none;fillColor=#FDD276;" parent="1" edge="1">
          <mxGeometry width="50" height="50" relative="1" as="geometry">
            <mxPoint x="148.65000000000032" y="641" as="sourcePoint" />
            <mxPoint x="116.5" y="673" as="targetPoint" />
          </mxGeometry>
        </mxCell>
        <mxCell id="BJRcYlKcCAD2B9d3_ZLO-4" value="" style="shape=flexArrow;endArrow=classic;html=1;rounded=0;fontColor=#FFFFFF;strokeColor=none;fillColor=#FDD276;" parent="1" edge="1">
          <mxGeometry width="50" height="50" relative="1" as="geometry">
            <mxPoint x="187.6500000000001" y="641" as="sourcePoint" />
            <mxPoint x="220.49999999999977" y="673" as="targetPoint" />
          </mxGeometry>
        </mxCell>
        <mxCell id="BJRcYlKcCAD2B9d3_ZLO-5" value="" style="shape=flexArrow;endArrow=classic;startArrow=classic;html=1;rounded=0;fontSize=16;fontColor=#FFFFFF;strokeColor=none;fillColor=#FDD276;" parent="1" edge="1">
          <mxGeometry width="100" height="100" relative="1" as="geometry">
            <mxPoint x="398" y="725.4999999999999" as="sourcePoint" />
            <mxPoint x="467" y="725.4999999999999" as="targetPoint" />
          </mxGeometry>
        </mxCell>
        <mxCell id="BJRcYlKcCAD2B9d3_ZLO-6" value="&lt;font color=&quot;#ffffff&quot;&gt;&lt;span style=&quot;font-size: 16px&quot;&gt;索引页&lt;br&gt;7-10&lt;br&gt;&lt;/span&gt;&lt;/font&gt;" style="whiteSpace=wrap;html=1;aspect=fixed;rounded=1;strokeColor=none;fillColor=#9AC7BF;" parent="1" vertex="1">
          <mxGeometry x="391.5" y="549" width="80" height="80" as="geometry" />
        </mxCell>
        <mxCell id="BJRcYlKcCAD2B9d3_ZLO-7" value="&lt;font color=&quot;#ffffff&quot;&gt;&lt;span style=&quot;font-size: 16px&quot;&gt;&lt;br&gt;&lt;/span&gt;&lt;/font&gt;" style="whiteSpace=wrap;html=1;aspect=fixed;rounded=1;strokeColor=none;fillColor=#4A919B;" parent="1" vertex="1">
          <mxGeometry x="309" y="686" width="80" height="80" as="geometry" />
        </mxCell>
        <mxCell id="BJRcYlKcCAD2B9d3_ZLO-8" value="行数据7" style="rounded=1;whiteSpace=wrap;html=1;fillColor=#535E80;strokeColor=default;fontColor=#FFFFFF;" parent="1" vertex="1">
          <mxGeometry x="316.25" y="708" width="65.75" height="17" as="geometry" />
        </mxCell>
        <mxCell id="BJRcYlKcCAD2B9d3_ZLO-9" value="行数据8" style="rounded=1;whiteSpace=wrap;html=1;fillColor=#535E80;strokeColor=default;fontColor=#FFFFFF;" parent="1" vertex="1">
          <mxGeometry x="316.25" y="725" width="65.75" height="17" as="geometry" />
        </mxCell>
        <mxCell id="BJRcYlKcCAD2B9d3_ZLO-10" value="行数据9" style="rounded=1;whiteSpace=wrap;html=1;fillColor=#535E80;strokeColor=default;fontColor=#FFFFFF;" parent="1" vertex="1">
          <mxGeometry x="316.13" y="742" width="65.75" height="17" as="geometry" />
        </mxCell>
        <mxCell id="BJRcYlKcCAD2B9d3_ZLO-11" value="&lt;font color=&quot;#ffffff&quot;&gt;数据页&lt;/font&gt;" style="text;html=1;strokeColor=none;fillColor=none;align=center;verticalAlign=middle;whiteSpace=wrap;rounded=0;dashed=1;fontColor=#535E80;" parent="1" vertex="1">
          <mxGeometry x="321" y="686" width="55" height="22" as="geometry" />
        </mxCell>
        <mxCell id="BJRcYlKcCAD2B9d3_ZLO-12" value="&lt;font color=&quot;#ffffff&quot;&gt;&lt;span style=&quot;font-size: 16px&quot;&gt;&lt;br&gt;&lt;/span&gt;&lt;/font&gt;" style="whiteSpace=wrap;html=1;aspect=fixed;rounded=1;strokeColor=none;fillColor=#4A919B;" parent="1" vertex="1">
          <mxGeometry x="474" y="686" width="80" height="80" as="geometry" />
        </mxCell>
        <mxCell id="BJRcYlKcCAD2B9d3_ZLO-13" value="行数据10" style="rounded=1;whiteSpace=wrap;html=1;fillColor=#535E80;strokeColor=default;fontColor=#FFFFFF;" parent="1" vertex="1">
          <mxGeometry x="481.25" y="708" width="65.75" height="17" as="geometry" />
        </mxCell>
        <mxCell id="BJRcYlKcCAD2B9d3_ZLO-14" value="行数据11" style="rounded=1;whiteSpace=wrap;html=1;fillColor=#535E80;strokeColor=default;fontColor=#FFFFFF;" parent="1" vertex="1">
          <mxGeometry x="481.25" y="725" width="65.75" height="17" as="geometry" />
        </mxCell>
        <mxCell id="BJRcYlKcCAD2B9d3_ZLO-15" value="行数据12" style="rounded=1;whiteSpace=wrap;html=1;fillColor=#535E80;strokeColor=default;fontColor=#FFFFFF;" parent="1" vertex="1">
          <mxGeometry x="481.13" y="742" width="65.75" height="17" as="geometry" />
        </mxCell>
        <mxCell id="BJRcYlKcCAD2B9d3_ZLO-16" value="&lt;font color=&quot;#ffffff&quot;&gt;数据页&lt;/font&gt;" style="text;html=1;strokeColor=none;fillColor=none;align=center;verticalAlign=middle;whiteSpace=wrap;rounded=0;dashed=1;fontColor=#535E80;" parent="1" vertex="1">
          <mxGeometry x="486" y="686" width="55" height="22" as="geometry" />
        </mxCell>
        <mxCell id="BJRcYlKcCAD2B9d3_ZLO-17" value="" style="shape=flexArrow;endArrow=classic;html=1;rounded=0;fontColor=#FFFFFF;strokeColor=none;fillColor=#FDD276;" parent="1" edge="1">
          <mxGeometry width="50" height="50" relative="1" as="geometry">
            <mxPoint x="411.6500000000003" y="641" as="sourcePoint" />
            <mxPoint x="379.5" y="672.9999999999999" as="targetPoint" />
          </mxGeometry>
        </mxCell>
        <mxCell id="BJRcYlKcCAD2B9d3_ZLO-18" value="" style="shape=flexArrow;endArrow=classic;html=1;rounded=0;fontColor=#FFFFFF;strokeColor=none;fillColor=#FDD276;" parent="1" edge="1">
          <mxGeometry width="50" height="50" relative="1" as="geometry">
            <mxPoint x="450.6500000000003" y="641" as="sourcePoint" />
            <mxPoint x="483.4999999999998" y="672.9999999999999" as="targetPoint" />
          </mxGeometry>
        </mxCell>
      </root>
    </mxGraphModel>
  </diagram>
</mxfile>
